<?xml version="1.0" encoding="UTF-8" standalone="no"?>
<!DOCTYPE svg PUBLIC "-//W3C//DTD SVG 1.0//EN" "http://www.w3.org/TR/2001/PR-SVG-20010719/DTD/svg10.dtd">
<svg width="59cm" height="45cm" viewBox="50 -16 1175 899" xmlns="http://www.w3.org/2000/svg" xmlns:xlink="http://www.w3.org/1999/xlink">
  <g>
    <line style="fill: none; fill-opacity:0; stroke-width: 2; stroke: #000000" x1="492.5" y1="656" x2="610.453" y2="720.338"/>
    <polygon style="fill: #000000" points="617.037,723.929 605.864,723.53 610.453,720.338 610.652,714.751 "/>
    <polygon style="fill: none; fill-opacity:0; stroke-width: 2; stroke: #000000" points="617.037,723.929 605.864,723.53 610.453,720.338 610.652,714.751 "/>
  </g>
  <g>
    <line style="fill: none; fill-opacity:0; stroke-width: 2; stroke: #000000" x1="492.5" y1="656" x2="492.193" y2="699.264"/>
    <polygon style="fill: #000000" points="492.14,706.764 487.211,696.729 492.193,699.264 497.211,696.8 "/>
    <polygon style="fill: none; fill-opacity:0; stroke-width: 2; stroke: #000000" points="492.14,706.764 487.211,696.729 492.193,699.264 497.211,696.8 "/>
  </g>
  <g>
    <line style="fill: none; fill-opacity:0; stroke-width: 2; stroke: #000000" x1="668.5" y1="777" x2="548.261" y2="815.996"/>
    <polygon style="fill: #000000" points="541.127,818.31 549.097,810.469 548.261,815.996 552.182,819.981 "/>
    <polygon style="fill: none; fill-opacity:0; stroke-width: 2; stroke: #000000" points="541.127,818.31 549.097,810.469 548.261,815.996 552.182,819.981 "/>
  </g>
  <g>
    <line style="fill: none; fill-opacity:0; stroke-width: 2; stroke: #000000" x1="492.124" y1="761" x2="492.853" y2="809.265"/>
    <polygon style="fill: #000000" points="492.966,816.764 487.816,806.841 492.853,809.265 497.815,806.69 "/>
    <polygon style="fill: none; fill-opacity:0; stroke-width: 2; stroke: #000000" points="492.966,816.764 487.816,806.841 492.853,809.265 497.815,806.69 "/>
  </g>
  <g>
    <line style="fill: none; fill-opacity:0; stroke-width: 2; stroke: #000000" x1="668.5" y1="777" x2="743.472" y2="818.302"/>
    <polygon style="fill: #000000" points="750.041,821.921 738.87,821.475 743.472,818.302 743.695,812.716 "/>
    <polygon style="fill: none; fill-opacity:0; stroke-width: 2; stroke: #000000" points="750.041,821.921 738.87,821.475 743.472,818.302 743.695,812.716 "/>
  </g>
  <text font-size="32" style="fill: #000000;text-anchor:start;font-family:arial black;font-style:normal;font-weight:normal" x="237" y="20">
    <tspan x="237" y="20">Matching Tile Games: A Family Tree</tspan>
  </text>
  <g>
    <line style="fill: none; fill-opacity:0; stroke-width: 2; stroke-dasharray: 4; stroke: #000000" x1="489.8" y1="472" x2="492.301" y2="594.266"/>
    <polygon style="fill: #000000" points="492.454,601.764 487.251,591.869 492.301,594.266 497.249,591.664 "/>
    <polygon style="fill: none; fill-opacity:0; stroke-width: 2; stroke: #000000" points="492.454,601.764 487.251,591.869 492.301,594.266 497.249,591.664 "/>
  </g>
  <g>
    <line style="fill: none; fill-opacity:0; stroke-width: 2; stroke: #000000" x1="847.3" y1="459" x2="866.791" y2="489.775"/>
    <polygon style="fill: #000000" points="870.804,496.111 861.229,490.338 866.791,489.775 869.677,484.987 "/>
    <polygon style="fill: none; fill-opacity:0; stroke-width: 2; stroke: #000000" points="870.804,496.111 861.229,490.338 866.791,489.775 869.677,484.987 "/>
  </g>
  <g>
    <line style="fill: none; fill-opacity:0; stroke-width: 2; stroke: #000000" x1="492.5" y1="656" x2="321.582" y2="733.96"/>
    <polygon style="fill: #000000" points="314.758,737.072 321.782,728.373 321.582,733.96 325.932,737.471 "/>
    <polygon style="fill: none; fill-opacity:0; stroke-width: 2; stroke: #000000" points="314.758,737.072 321.782,728.373 321.582,733.96 325.932,737.471 "/>
  </g>
  <g>
    <line style="fill: none; fill-opacity:0; stroke-width: 2; stroke: #000000" x1="379.15" y1="790" x2="438.047" y2="815.174"/>
    <polygon style="fill: #000000" points="444.944,818.121 433.783,818.789 438.047,815.174 437.714,809.593 "/>
    <polygon style="fill: none; fill-opacity:0; stroke-width: 2; stroke: #000000" points="444.944,818.121 433.783,818.789 438.047,815.174 437.714,809.593 "/>
  </g>
  <g>
    <line style="fill: none; fill-opacity:0; stroke-width: 2; stroke: #000000" x1="432.5" y1="384.8" x2="194.955" y2="786.619"/>
    <polygon style="fill: #000000" points="191.138,793.075 191.923,781.922 194.955,786.619 200.531,787.011 "/>
    <polygon style="fill: none; fill-opacity:0; stroke-width: 2; stroke: #000000" points="191.138,793.075 191.923,781.922 194.955,786.619 200.531,787.011 "/>
  </g>
  <g>
    <rect style="fill: #ffffff" x="752" y="797" width="80" height="52" rx="20" ry="20"/>
    <rect style="fill: none; fill-opacity:0; stroke-width: 2; stroke: #000000" x="752" y="797" width="80" height="52" rx="20" ry="20"/>
    <text font-size="12.8" style="fill: #000000;text-anchor:middle;font-family:sans-serif;font-style:normal;font-weight:normal" x="792" y="818.9">
      <tspan x="792" y="818.9">Chuzzle</tspan>
      <tspan x="792" y="834.9">(2005)</tspan>
    </text>
  </g>
  <g>
    <rect style="fill: #ffffff" x="815" y="498" width="110" height="52" rx="20" ry="20"/>
    <rect style="fill: none; fill-opacity:0; stroke-width: 2; stroke: #000000" x="815" y="498" width="110" height="52" rx="20" ry="20"/>
    <text font-size="12.8" style="fill: #000000;text-anchor:middle;font-family:sans-serif;font-style:normal;font-weight:normal" x="870" y="519.9">
      <tspan x="870" y="519.9">Puzzle Fighter</tspan>
      <tspan x="870" y="535.9">(1996)</tspan>
    </text>
  </g>
  <g>
    <path style="fill: none; fill-opacity:0; stroke-width: 2; stroke: #000000" d="M 441,709 A 113.01,113.01 0 0 0 386.56,731.727"/>
    <polygon style="fill: #000000" points="380.793,736.483 384.749,726.026 386.304,731.396 391.532,733.374 "/>
    <polygon style="fill: none; fill-opacity:0; stroke-width: 2; stroke: #000000" points="380.793,736.483 384.749,726.026 386.304,731.396 391.532,733.374 "/>
  </g>
  <g>
    <line style="fill: none; fill-opacity:0; stroke-width: 2; stroke-dasharray: 4; stroke: #000000" x1="749" y1="87" x2="804.204" y2="121.92"/>
    <polygon style="fill: #000000" points="801.531,126.145 812.655,127.265 806.877,117.694 "/>
    <polygon style="fill: none; fill-opacity:0; stroke-width: 2; stroke: #000000" points="801.531,126.145 812.655,127.265 806.877,117.694 "/>
  </g>
  <g>
    <line style="fill: none; fill-opacity:0; stroke-width: 2; stroke: #000000" x1="394.5" y1="170.8" x2="481.592" y2="210.525"/>
    <polygon style="fill: #000000" points="479.517,215.074 490.69,214.675 483.667,205.976 "/>
    <polygon style="fill: none; fill-opacity:0; stroke-width: 2; stroke: #000000" points="479.517,215.074 490.69,214.675 483.667,205.976 "/>
  </g>
  <g>
    <line style="fill: none; fill-opacity:0; stroke-width: 2; stroke: #000000" x1="853.5" y1="179.8" x2="901.78" y2="337.482"/>
    <polygon style="fill: #000000" points="896.999,338.946 904.707,347.044 906.56,336.018 "/>
    <polygon style="fill: none; fill-opacity:0; stroke-width: 2; stroke: #000000" points="896.999,338.946 904.707,347.044 906.56,336.018 "/>
  </g>
  <g>
    <line style="fill: none; fill-opacity:0; stroke-width: 2; stroke: #000000" x1="436.1" y1="267.09" x2="155.241" y2="785.329"/>
    <polygon style="fill: #000000" points="150.845,782.947 150.476,794.121 159.637,787.711 "/>
    <polygon style="fill: none; fill-opacity:0; stroke-width: 2; stroke: #000000" points="150.845,782.947 150.476,794.121 159.637,787.711 "/>
  </g>
  <g>
    <line style="fill: none; fill-opacity:0; stroke-width: 2; stroke: #000000" x1="490.5" y1="384.8" x2="490.019" y2="409.002"/>
    <polygon style="fill: #000000" points="485.02,408.903 489.82,419 495.018,409.102 "/>
    <polygon style="fill: none; fill-opacity:0; stroke-width: 2; stroke: #000000" points="485.02,408.903 489.82,419 495.018,409.102 "/>
  </g>
  <g>
    <path style="fill: none; fill-opacity:0; stroke-width: 2; stroke-dasharray: 4; stroke: #000000" d="M 314.5,170.8 A 528.719,528.719 0 0 0 306.951,728.639"/>
    <polygon style="fill: #000000" points="302.625,731.367 312.19,737.154 311.081,726.029 "/>
    <polygon style="fill: none; fill-opacity:0; stroke-width: 2; stroke: #000000" points="302.625,731.367 312.19,737.154 311.081,726.029 "/>
  </g>
  <g>
    <path style="fill: none; fill-opacity:0; stroke-width: 2; stroke: #000000" d="M 793.097,786.058 A 396.907,396.907 0 0 0 548.5,384.8"/>
    <polygon style="fill: #000000" points="788.282,785.503 792.114,796.006 798.217,786.639 "/>
    <polygon style="fill: none; fill-opacity:0; stroke-width: 2; stroke: #000000" points="788.282,785.503 792.114,796.006 798.217,786.639 "/>
  </g>
  <g>
    <line style="fill: none; fill-opacity:0; stroke-width: 2; stroke: #000000" x1="709" y1="87" x2="662.099" y2="203.792"/>
    <polygon style="fill: #000000" points="657.459,201.929 658.373,213.072 666.739,205.656 "/>
    <polygon style="fill: none; fill-opacity:0; stroke-width: 2; stroke: #000000" points="657.459,201.929 658.373,213.072 666.739,205.656 "/>
  </g>
  <g>
    <path style="fill: none; fill-opacity:0; stroke-width: 2; stroke-dasharray: 4; stroke: #000000" d="M 354.5,170.8 A 101.783,101.783 0 0 0 422.115,362.28"/>
    <polygon style="fill: #000000" points="424.115,367.5 431.57,359.168 420.432,358.203 "/>
    <polygon style="fill: none; fill-opacity:0; stroke-width: 2; stroke: #000000" points="424.115,367.5 431.57,359.168 420.432,358.203 "/>
  </g>
  <g>
    <line style="fill: none; fill-opacity:0; stroke-width: 2; stroke: #000000" x1="742.5" y1="337.8" x2="795.108" y2="398.677"/>
    <polygon style="fill: #000000" points="791.325,401.946 801.646,406.243 798.891,395.408 "/>
    <polygon style="fill: none; fill-opacity:0; stroke-width: 2; stroke: #000000" points="791.325,401.946 801.646,406.243 798.891,395.408 "/>
  </g>
  <g>
    <line style="fill: none; fill-opacity:0; stroke-width: 2; stroke: #000000" x1="532" y1="643" x2="606.329" y2="673.611"/>
    <polygon style="fill: #000000" points="604.425,678.234 615.575,677.419 608.233,668.988 "/>
    <polygon style="fill: none; fill-opacity:0; stroke-width: 2; stroke: #000000" points="604.425,678.234 615.575,677.419 608.233,668.988 "/>
  </g>
  <g>
    <rect style="fill: #ffffff" x="337" y="545" width="80" height="52" rx="20" ry="20"/>
    <rect style="fill: none; fill-opacity:0; stroke-width: 2; stroke: #000000" x="337" y="545" width="80" height="52" rx="20" ry="20"/>
    <text font-size="12.8" style="fill: #000000;text-anchor:middle;font-family:sans-serif;font-style:normal;font-weight:normal" x="377" y="566.9">
      <tspan x="377" y="566.9">Collapse</tspan>
      <tspan x="377" y="582.9">(1998)</tspan>
    </text>
  </g>
  <g>
    <line style="fill: none; fill-opacity:0; stroke-width: 2; stroke-dasharray: 4; stroke: #000000" x1="669" y1="87" x2="405.264" y2="142.533"/>
    <polygon style="fill: #000000" points="404.234,137.641 395.479,144.594 406.294,147.426 "/>
    <polygon style="fill: none; fill-opacity:0; stroke-width: 2; stroke: #000000" points="404.234,137.641 395.479,144.594 406.294,147.426 "/>
  </g>
  <g>
    <line style="fill: none; fill-opacity:0; stroke-width: 2; stroke-dasharray: 4; stroke: #000000" x1="542.5" y1="88.8" x2="612.32" y2="204.58"/>
    <polygon style="fill: #000000" points="608.038,207.162 617.484,213.144 616.601,201.998 "/>
    <polygon style="fill: none; fill-opacity:0; stroke-width: 2; stroke: #000000" points="608.038,207.162 617.484,213.144 616.601,201.998 "/>
  </g>
  <g>
    <line style="fill: none; fill-opacity:0; stroke-width: 2; stroke-dasharray: 4; stroke: #000000" x1="497.5" y1="88.8" x2="405.061" y2="115.724"/>
    <polygon style="fill: #000000" points="403.663,110.923 395.46,118.52 406.459,120.524 "/>
    <polygon style="fill: none; fill-opacity:0; stroke-width: 2; stroke: #000000" points="403.663,110.923 395.46,118.52 406.459,120.524 "/>
  </g>
  <g>
    <line style="fill: none; fill-opacity:0; stroke-width: 2; stroke-dasharray: 4; stroke: #000000" x1="587.5" y1="88.8" x2="802.929" y2="150.76"/>
    <polygon style="fill: #000000" points="801.547,155.565 812.539,153.524 804.311,145.954 "/>
    <polygon style="fill: none; fill-opacity:0; stroke-width: 2; stroke: #000000" points="801.547,155.565 812.539,153.524 804.311,145.954 "/>
  </g>
  <text font-size="12.8" style="fill: #000000;text-anchor:start;font-family:sans-serif;font-style:normal;font-weight:normal" x="51.5" y="275.4">
    <tspan x="51.5" y="275.4">1990</tspan>
  </text>
  <text font-size="12.8" style="fill: #000000;text-anchor:start;font-family:sans-serif;font-style:normal;font-weight:normal" x="53.5" y="452.4">
    <tspan x="53.5" y="452.4">1995</tspan>
  </text>
  <text font-size="12.8" style="fill: #000000;text-anchor:start;font-family:sans-serif;font-style:normal;font-weight:normal" x="51.5" y="636.4">
    <tspan x="51.5" y="636.4">2000</tspan>
  </text>
  <text font-size="12.8" style="fill: #000000;text-anchor:start;font-family:sans-serif;font-style:normal;font-weight:normal" x="50.5" y="95.4002">
    <tspan x="50.5" y="95.4002">1985</tspan>
  </text>
  <text font-size="12.8" style="fill: #000000;text-anchor:start;font-family:sans-serif;font-style:normal;font-weight:normal" x="50.5" y="815.4">
    <tspan x="50.5" y="815.4">2005</tspan>
  </text>
  <g>
    <line style="fill: none; fill-opacity:0; stroke-width: 2; stroke: #000000" x1="547.1" y1="267.09" x2="687.838" y2="284.598"/>
    <polygon style="fill: #000000" points="695.281,285.524 684.74,289.251 687.838,284.598 685.975,279.328 "/>
    <polygon style="fill: none; fill-opacity:0; stroke-width: 2; stroke: #000000" points="695.281,285.524 684.74,289.251 687.838,284.598 685.975,279.328 "/>
  </g>
  <g>
    <path style="fill: none; fill-opacity:0; stroke-width: 2; stroke: #000000" d="M 898.309,340.931 A 344.117,344.117 0 0 0 698,240"/>
    <polygon style="fill: #000000" points="903.486,346.354 893.036,342.381 898.408,340.835 900.395,335.61 "/>
    <polygon style="fill: none; fill-opacity:0; stroke-width: 2; stroke: #000000" points="903.486,346.354 893.036,342.381 898.408,340.835 900.395,335.61 "/>
  </g>
  <g>
    <path style="fill: none; fill-opacity:0; stroke-width: 2; stroke: #000000" d="M 542.5,88.8 A 299.106,299.106 0 0 0 371.65,536.87"/>
    <polygon style="fill: #000000" points="375.741,543.152 365.977,537.705 371.517,536.955 374.24,532.073 "/>
    <polygon style="fill: none; fill-opacity:0; stroke-width: 2; stroke: #000000" points="375.741,543.152 365.977,537.705 371.517,536.955 374.24,532.073 "/>
  </g>
  <g>
    <rect style="fill: #ffffff" x="990.5" y="546.4" width="84.25" height="52" rx="20" ry="20"/>
    <rect style="fill: none; fill-opacity:0; stroke-width: 2; stroke: #000000" x="990.5" y="546.4" width="84.25" height="52" rx="20" ry="20"/>
    <text font-size="12.8" style="fill: #000000;text-anchor:middle;font-family:sans-serif;font-style:normal;font-weight:normal" x="1032.63" y="568.3">
      <tspan x="1032.63" y="568.3">Puzz Loop</tspan>
      <tspan x="1032.63" y="584.3">(1998)</tspan>
    </text>
  </g>
  <g>
    <line style="fill: none; fill-opacity:0; stroke-width: 2; stroke: #000000" x1="962" y1="400" x2="1031.13" y2="537.699"/>
    <polygon style="fill: #000000" points="1034.5,544.402 1025.54,537.708 1031.13,537.699 1034.48,533.221 "/>
    <polygon style="fill: none; fill-opacity:0; stroke-width: 2; stroke: #000000" points="1034.5,544.402 1025.54,537.708 1031.13,537.699 1034.48,533.221 "/>
  </g>
  <text font-size="8" style="fill: #000000;text-anchor:start;font-family:sans-serif;font-style:normal;font-weight:normal" x="1085.5" y="554.4">
    <tspan x="1085.5" y="554.4">+Objects approach</tspan>
    <tspan x="1085.5" y="564.4">in a circle</tspan>
    <tspan x="1085.5" y="574.4">+Shoot tiles from</tspan>
    <tspan x="1085.5" y="584.4">center</tspan>
    <tspan x="1085.5" y="594.4"></tspan>
  </text>
  <g>
    <rect style="fill: #ffffff" x="1094.5" y="725.4" width="80" height="52" rx="20" ry="20"/>
    <rect style="fill: none; fill-opacity:0; stroke-width: 2; stroke: #000000" x="1094.5" y="725.4" width="80" height="52" rx="20" ry="20"/>
    <text font-size="12.8" style="fill: #000000;text-anchor:middle;font-family:sans-serif;font-style:normal;font-weight:normal" x="1134.5" y="747.3">
      <tspan x="1134.5" y="747.3">Zuma</tspan>
      <tspan x="1134.5" y="763.3">(2004)</tspan>
    </text>
  </g>
  <g>
    <path style="fill: none; fill-opacity:0; stroke-width: 2; stroke: #000000" d="M 983.485,721.747 A 390.107,390.107 0 0 0 536,604"/>
    <polygon style="fill: #000000" points="988.14,727.625 978.09,722.727 983.579,721.671 986.028,716.646 "/>
    <polygon style="fill: none; fill-opacity:0; stroke-width: 2; stroke: #000000" points="988.14,727.625 978.09,722.727 983.579,721.671 986.028,716.646 "/>
  </g>
  <g>
    <line style="fill: none; fill-opacity:0; stroke-width: 2; stroke: #000000" x1="905" y1="400" x2="1026.06" y2="720.293"/>
    <polygon style="fill: #000000" points="1028.71,727.308 1020.5,719.722 1026.06,720.293 1029.85,716.186 "/>
    <polygon style="fill: none; fill-opacity:0; stroke-width: 2; stroke: #000000" points="1028.71,727.308 1020.5,719.722 1026.06,720.293 1029.85,716.186 "/>
  </g>
  <g>
    <line style="fill: none; fill-opacity:0; stroke-width: 2; stroke: #000000" x1="1080.5" y1="598.4" x2="1130.69" y2="716.44"/>
    <polygon style="fill: #000000" points="1133.63,723.342 1125.11,716.096 1130.69,716.44 1134.31,712.183 "/>
    <polygon style="fill: none; fill-opacity:0; stroke-width: 2; stroke: #000000" points="1133.63,723.342 1125.11,716.096 1130.69,716.44 1134.31,712.183 "/>
  </g>
  <g>
    <line style="fill: none; fill-opacity:0; stroke-width: 2; stroke-dasharray: 4; stroke: #000000" x1="1134.5" y1="777.4" x2="1132.99" y2="792.164"/>
    <polygon style="fill: #000000" points="1132.23,799.626 1128.27,789.169 1132.99,792.164 1138.22,790.186 "/>
    <polygon style="fill: none; fill-opacity:0; stroke-width: 2; stroke: #000000" points="1132.23,799.626 1128.27,789.169 1132.99,792.164 1138.22,790.186 "/>
  </g>
  <g>
    <path style="fill: none; fill-opacity:0; stroke-width: 2; stroke-dasharray: 4; stroke: #000000" d="M 1177.06,793.54 A 261.762,261.762 0 0 0 962,400"/>
    <polygon style="fill: #000000" points="1173.2,799.962 1174.34,788.84 1177.22,793.631 1182.78,794.201 "/>
    <polygon style="fill: none; fill-opacity:0; stroke-width: 2; stroke: #000000" points="1173.2,799.962 1174.34,788.84 1177.22,793.631 1182.78,794.201 "/>
  </g>
  <g>
    <line style="fill: none; fill-opacity:0; stroke-width: 2; stroke: #000000" x1="1035.5" y1="598.4" x2="1089.39" y2="792.469"/>
    <polygon style="fill: #000000" points="1091.4,799.695 1083.91,791.398 1089.39,792.469 1093.54,788.722 "/>
    <polygon style="fill: none; fill-opacity:0; stroke-width: 2; stroke: #000000" points="1091.4,799.695 1083.91,791.398 1089.39,792.469 1093.54,788.722 "/>
  </g>
  <g>
    <line style="fill: none; fill-opacity:0; stroke-width: 2; stroke: #000000" x1="491.6" y1="267.09" x2="490.663" y2="323.065"/>
    <polygon style="fill: #000000" points="490.537,330.564 485.706,320.482 490.663,323.065 495.704,320.649 "/>
    <polygon style="fill: none; fill-opacity:0; stroke-width: 2; stroke: #000000" points="490.537,330.564 485.706,320.482 490.663,323.065 495.704,320.649 "/>
  </g>
  <g>
    <line style="fill: none; fill-opacity:0; stroke-width: 2; stroke: #000000" x1="447" y1="845" x2="409.956" y2="854.082"/>
    <polygon style="fill: #000000" points="402.672,855.868 411.194,848.63 409.956,854.082 413.575,858.343 "/>
    <polygon style="fill: none; fill-opacity:0; stroke-width: 2; stroke: #000000" points="402.672,855.868 411.194,848.63 409.956,854.082 413.575,858.343 "/>
  </g>
  <g>
    <line style="fill: none; fill-opacity:0; stroke-width: 2; stroke: #000000" x1="658" y1="266" x2="850.205" y2="720.034"/>
    <polygon style="fill: #000000" points="853.128,726.941 844.626,719.681 850.205,720.034 853.834,715.783 "/>
    <polygon style="fill: none; fill-opacity:0; stroke-width: 2; stroke: #000000" points="853.128,726.941 844.626,719.681 850.205,720.034 853.834,715.783 "/>
  </g>
  <g>
    <line style="fill: none; fill-opacity:0; stroke-width: 2; stroke: #000000" x1="698" y1="266" x2="733.605" y2="281.842"/>
    <polygon style="fill: #000000" points="740.457,284.891 729.288,285.394 733.605,281.842 733.353,276.258 "/>
    <polygon style="fill: none; fill-opacity:0; stroke-width: 2; stroke: #000000" points="740.457,284.891 729.288,285.394 733.605,281.842 733.353,276.258 "/>
  </g>
  <g>
    <rect style="fill: #ffffff" x="314.5" y="118.8" width="80" height="52" rx="20" ry="20"/>
    <rect style="fill: none; fill-opacity:0; stroke-width: 2; stroke: #000000" x="314.5" y="118.8" width="80" height="52" rx="20" ry="20"/>
    <text font-size="12.8" style="fill: #000000;text-anchor:middle;font-family:sans-serif;font-style:normal;font-weight:normal" x="354.5" y="140.7">
      <tspan x="354.5" y="140.7">Puzznic</tspan>
      <tspan x="354.5" y="156.7">(1989)</tspan>
    </text>
  </g>
  <text font-size="8" style="fill: #000000;text-anchor:end;font-family:sans-serif;font-style:normal;font-weight:normal" x="309.5" y="131.8">
    <tspan x="309.5" y="131.8">+Match two tiles</tspan>
    <tspan x="309.5" y="141.8">+Move single tile</tspan>
    <tspan x="309.5" y="151.8">+Irregular playing</tspan>
    <tspan x="309.5" y="161.8">field</tspan>
  </text>
  <text font-size="8" style="fill: #000000;text-anchor:end;font-family:sans-serif;font-style:normal;font-weight:normal" x="494.2" y="50.6">
    <tspan x="494.2" y="50.6">+Untimed</tspan>
    <tspan x="494.2" y="60.6">+Click on matches</tspan>
    <tspan x="494.2" y="70.6">+Match groups</tspan>
    <tspan x="494.2" y="80.6">+Matches required</tspan>
  </text>
  <g>
    <rect style="fill: #ffffff" x="497.5" y="36.8" width="88.2" height="52" rx="20" ry="20"/>
    <rect style="fill: none; fill-opacity:0; stroke-width: 2; stroke: #000000" x="497.5" y="36.8" width="88.2" height="52" rx="20" ry="20"/>
    <text font-size="12.8" style="fill: #000000;text-anchor:middle;font-family:sans-serif;font-style:normal;font-weight:normal" x="541.6" y="58.7">
      <tspan x="541.6" y="58.7">Chain shot</tspan>
      <tspan x="541.6" y="74.7">(1985)</tspan>
    </text>
  </g>
  <g>
    <rect style="fill: #ffffff" x="669" y="35" width="80" height="52" rx="20" ry="20"/>
    <rect style="fill: none; fill-opacity:0; stroke-width: 2; stroke: #000000" x="669" y="35" width="80" height="52" rx="20" ry="20"/>
    <text font-size="12.8" style="fill: #000000;text-anchor:middle;font-family:sans-serif;font-style:normal;font-weight:normal" x="709" y="56.9">
      <tspan x="709" y="56.9">Tetris</tspan>
      <tspan x="709" y="72.9">(1985)</tspan>
    </text>
  </g>
  <text font-size="8" style="fill: #000000;text-anchor:start;font-family:sans-serif;font-style:normal;font-weight:normal" x="754.712" y="48.9">
    <tspan x="754.712" y="48.9">+Time pressure</tspan>
    <tspan x="754.712" y="58.9">+Control falling shapes</tspan>
    <tspan x="754.712" y="68.9">+Match full horizontal lines</tspan>
    <tspan x="754.712" y="78.9">+No matches required</tspan>
  </text>
  <g>
    <rect style="fill: #ffffff" x="813.5" y="127.8" width="80" height="52" rx="20" ry="20"/>
    <rect style="fill: none; fill-opacity:0; stroke-width: 2; stroke: #000000" x="813.5" y="127.8" width="80" height="52" rx="20" ry="20"/>
    <text font-size="12.8" style="fill: #000000;text-anchor:middle;font-family:sans-serif;font-style:normal;font-weight:normal" x="853.5" y="149.7">
      <tspan x="853.5" y="149.7">Plotting</tspan>
      <tspan x="853.5" y="165.7">(1989)</tspan>
    </text>
  </g>
  <text font-size="8" style="fill: #000000;text-anchor:start;font-family:sans-serif;font-style:normal;font-weight:normal" x="895.5" y="136.8">
    <tspan x="895.5" y="136.8">+Match two tiles</tspan>
    <tspan x="895.5" y="146.8">+Shoot tiles</tspan>
  </text>
  <g>
    <rect style="fill: #ffffff" x="848" y="348" width="109.1" height="52" rx="20" ry="20"/>
    <rect style="fill: none; fill-opacity:0; stroke-width: 2; stroke: #000000" x="848" y="348" width="109.1" height="52" rx="20" ry="20"/>
    <text font-size="12.8" style="fill: #000000;text-anchor:middle;font-family:sans-serif;font-style:normal;font-weight:normal" x="902.55" y="369.9">
      <tspan x="902.55" y="369.9">Puzzle Bobble</tspan>
      <tspan x="902.55" y="385.9">(1994)</tspan>
    </text>
  </g>
  <text font-size="8" style="fill: #000000;text-anchor:start;font-family:sans-serif;font-style:normal;font-weight:normal" x="963.6" y="363.1">
    <tspan x="963.6" y="363.1">+Objects move up</tspan>
    <tspan x="963.6" y="373.1">+Rows shifted</tspan>
    <tspan x="963.6" y="383.1"></tspan>
  </text>
  <g>
    <rect style="fill: #ffffff" x="618" y="214" width="80" height="52" rx="20" ry="20"/>
    <rect style="fill: none; fill-opacity:0; stroke-width: 2; stroke: #000000" x="618" y="214" width="80" height="52" rx="20" ry="20"/>
    <text font-size="12.8" style="fill: #000000;text-anchor:middle;font-family:sans-serif;font-style:normal;font-weight:normal" x="658" y="235.9">
      <tspan x="658" y="235.9">Dr. Mario</tspan>
      <tspan x="658" y="251.9">(1990)</tspan>
    </text>
  </g>
  <text font-size="8" style="fill: #000000;text-anchor:start;font-family:sans-serif;font-style:normal;font-weight:normal" x="703" y="222">
    <tspan x="703" y="222">+Match special objects</tspan>
    <tspan x="703" y="232">to make matches</tspan>
  </text>
  <text font-size="8" style="fill: #000000;text-anchor:end;font-family:sans-serif;font-style:normal;font-weight:normal" x="594.5" y="223.8">
    <tspan x="594.5" y="223.8">+Shift tiles</tspan>
    <tspan x="594.5" y="233.8">vertically</tspan>
  </text>
  <g>
    <rect style="fill: #ffffff" x="436.1" y="215.09" width="108.15" height="52" rx="20" ry="20"/>
    <rect style="fill: none; fill-opacity:0; stroke-width: 2; stroke: #000000" x="436.1" y="215.09" width="108.15" height="52" rx="20" ry="20"/>
    <text font-size="12.8" style="fill: #000000;text-anchor:middle;font-family:sans-serif;font-style:normal;font-weight:normal" x="490.175" y="236.99">
      <tspan x="490.175" y="236.99">Magic Jewelry</tspan>
      <tspan x="490.175" y="252.99">(1990)</tspan>
    </text>
  </g>
  <g>
    <rect style="fill: #ffffff" x="432.5" y="332.8" width="111.65" height="52" rx="20" ry="20"/>
    <rect style="fill: none; fill-opacity:0; stroke-width: 2; stroke: #000000" x="432.5" y="332.8" width="111.65" height="52" rx="20" ry="20"/>
    <text font-size="12.8" style="fill: #000000;text-anchor:middle;font-family:sans-serif;font-style:normal;font-weight:normal" x="488.325" y="354.7">
      <tspan x="488.325" y="354.7">Yoshi's Cookie</tspan>
      <tspan x="488.325" y="370.7">(1992)</tspan>
    </text>
  </g>
  <text font-size="8" style="fill: #000000;text-anchor:start;font-family:sans-serif;font-style:normal;font-weight:normal" x="551.5" y="338.8">
    <tspan x="551.5" y="338.8">+Control fallen tiles</tspan>
    <tspan x="551.5" y="348.8">+Drag rows</tspan>
    <tspan x="551.5" y="358.8">and columns</tspan>
    <tspan x="551.5" y="368.8">+Match entire rows and</tspan>
    <tspan x="551.5" y="378.8">lines</tspan>
  </text>
  <g>
    <rect style="fill: #ffffff" x="697.5" y="285.8" width="86.55" height="52" rx="20" ry="20"/>
    <rect style="fill: none; fill-opacity:0; stroke-width: 2; stroke: #000000" x="697.5" y="285.8" width="86.55" height="52" rx="20" ry="20"/>
    <text font-size="12.8" style="fill: #000000;text-anchor:middle;font-family:sans-serif;font-style:normal;font-weight:normal" x="740.775" y="307.7">
      <tspan x="740.775" y="307.7">Puyo Puyo</tspan>
      <tspan x="740.775" y="323.7">(1991)</tspan>
    </text>
  </g>
  <text font-size="8" style="fill: #000000;text-anchor:start;font-family:sans-serif;font-style:normal;font-weight:normal" x="789.7" y="304.6">
    <tspan x="789.7" y="304.6">+Match 4</tspan>
  </text>
  <g>
    <rect style="fill: #ffffff" x="757.3" y="407" width="88.35" height="52" rx="20" ry="20"/>
    <rect style="fill: none; fill-opacity:0; stroke-width: 2; stroke: #000000" x="757.3" y="407" width="88.35" height="52" rx="20" ry="20"/>
    <text font-size="12.8" style="fill: #000000;text-anchor:middle;font-family:sans-serif;font-style:normal;font-weight:normal" x="801.475" y="428.9">
      <tspan x="801.475" y="428.9">Baku Baku</tspan>
      <tspan x="801.475" y="444.9">(1995)</tspan>
    </text>
  </g>
  <text font-size="8" style="fill: #000000;text-anchor:start;font-family:sans-serif;font-style:normal;font-weight:normal" x="851.5" y="422.8">
    <tspan x="851.5" y="422.8">+Special </tspan>
    <tspan x="851.5" y="432.8">objects</tspan>
    <tspan x="851.5" y="442.8">to match</tspan>
  </text>
  <g>
    <rect style="fill: #ffffff" x="434.3" y="420" width="106.95" height="52" rx="20" ry="20"/>
    <rect style="fill: none; fill-opacity:0; stroke-width: 2; stroke: #000000" x="434.3" y="420" width="106.95" height="52" rx="20" ry="20"/>
    <text font-size="12.8" style="fill: #000000;text-anchor:middle;font-family:sans-serif;font-style:normal;font-weight:normal" x="487.775" y="441.9">
      <tspan x="487.775" y="441.9">Panel de Pon </tspan>
      <tspan x="487.775" y="457.9">(1995)</tspan>
    </text>
  </g>
  <text font-size="8" style="fill: #000000;text-anchor:start;font-family:sans-serif;font-style:normal;font-weight:normal" x="548.4" y="435.8">
    <tspan x="548.4" y="435.8">+Swap tiles</tspan>
  </text>
  <g>
    <rect style="fill: #ffffff" x="449" y="604" width="86.1" height="52" rx="20" ry="20"/>
    <rect style="fill: none; fill-opacity:0; stroke-width: 2; stroke: #000000" x="449" y="604" width="86.1" height="52" rx="20" ry="20"/>
    <text font-size="12.8" style="fill: #000000;text-anchor:middle;font-family:sans-serif;font-style:normal;font-weight:normal" x="492.05" y="625.9">
      <tspan x="492.05" y="625.9">Bejeweled</tspan>
      <tspan x="492.05" y="641.9">(2001)</tspan>
    </text>
  </g>
  <text font-size="8" style="fill: #000000;text-anchor:start;font-family:sans-serif;font-style:normal;font-weight:normal" x="540.4" y="618.8">
    <tspan x="540.4" y="618.8">+Screen always full</tspan>
    <tspan x="540.4" y="628.8">+Only matching moves possible</tspan>
    <tspan x="540.4" y="638.8">+Untimed mode</tspan>
  </text>
  <g>
    <rect style="fill: #ffffff" x="616.5" y="651.8" width="94" height="52" rx="20" ry="20"/>
    <rect style="fill: none; fill-opacity:0; stroke-width: 2; stroke: #000000" x="616.5" y="651.8" width="94" height="52" rx="20" ry="20"/>
    <text font-size="12.8" style="fill: #000000;text-anchor:middle;font-family:sans-serif;font-style:normal;font-weight:normal" x="663.5" y="673.7">
      <tspan x="663.5" y="673.7">Zoo Keeper</tspan>
      <tspan x="663.5" y="689.7">(2003)</tspan>
    </text>
  </g>
  <text font-size="8" style="fill: #000000;text-anchor:start;font-family:sans-serif;font-style:normal;font-weight:normal" x="716.5" y="659.8">
    <tspan x="716.5" y="659.8">+No match</tspan>
    <tspan x="716.5" y="669.8">pauses</tspan>
    <tspan x="716.5" y="679.8">+Counters for</tspan>
    <tspan x="716.5" y="689.8">each tile type</tspan>
  </text>
  <g>
    <rect style="fill: #ffffff" x="246.3" y="738" width="126.2" height="52" rx="20" ry="20"/>
    <rect style="fill: none; fill-opacity:0; stroke-width: 2; stroke: #000000" x="246.3" y="738" width="126.2" height="52" rx="20" ry="20"/>
    <text font-size="12.8" style="fill: #000000;text-anchor:middle;font-family:sans-serif;font-style:normal;font-weight:normal" x="309.4" y="759.9">
      <tspan x="309.4" y="759.9">Big Kahuna Reef</tspan>
      <tspan x="309.4" y="775.9">(2004)</tspan>
    </text>
  </g>
  <text font-size="8" style="fill: #000000;text-anchor:start;font-family:sans-serif;font-style:normal;font-weight:normal" x="387.3" y="752">
    <tspan x="387.3" y="752">+Irregular</tspan>
    <tspan x="387.3" y="762">playing</tspan>
    <tspan x="387.3" y="772">field</tspan>
  </text>
  <text font-size="8" style="fill: #000000;text-anchor:start;font-family:sans-serif;font-style:normal;font-weight:normal" x="549" y="727">
    <tspan x="549" y="727">+Match on</tspan>
    <tspan x="549" y="737">background </tspan>
    <tspan x="549" y="747">squares</tspan>
  </text>
  <g>
    <rect style="fill: #ffffff" x="441" y="709" width="95.9" height="52" rx="20" ry="20"/>
    <rect style="fill: none; fill-opacity:0; stroke-width: 2; stroke: #000000" x="441" y="709" width="95.9" height="52" rx="20" ry="20"/>
    <text font-size="12.8" style="fill: #000000;text-anchor:middle;font-family:sans-serif;font-style:normal;font-weight:normal" x="488.95" y="730.9">
      <tspan x="488.95" y="730.9">Jewel Quest</tspan>
      <tspan x="488.95" y="746.9">(2004)</tspan>
    </text>
  </g>
  <g>
    <rect style="fill: #ffffff" x="619" y="725" width="98.3" height="52" rx="20" ry="20"/>
    <rect style="fill: none; fill-opacity:0; stroke-width: 2; stroke: #000000" x="619" y="725" width="98.3" height="52" rx="20" ry="20"/>
    <text font-size="12.8" style="fill: #000000;text-anchor:middle;font-family:sans-serif;font-style:normal;font-weight:normal" x="668.15" y="746.9">
      <tspan x="668.15" y="746.9">Bejeweled 2</tspan>
      <tspan x="668.15" y="762.9">(2004)</tspan>
    </text>
  </g>
  <text font-size="8" style="fill: #000000;text-anchor:start;font-family:sans-serif;font-style:normal;font-weight:normal" x="722.3" y="736">
    <tspan x="722.3" y="736">+Jewel and</tspan>
    <tspan x="722.3" y="746">hypercube for</tspan>
    <tspan x="722.3" y="756">special</tspan>
    <tspan x="722.3" y="766">matches</tspan>
  </text>
  <g>
    <rect style="fill: #ffffff" x="814" y="729" width="80" height="52" rx="20" ry="20"/>
    <rect style="fill: none; fill-opacity:0; stroke-width: 2; stroke: #000000" x="814" y="729" width="80" height="52" rx="20" ry="20"/>
    <text font-size="12.8" style="fill: #000000;text-anchor:middle;font-family:sans-serif;font-style:normal;font-weight:normal" x="854" y="750.9">
      <tspan x="854" y="750.9">Lumines</tspan>
      <tspan x="854" y="766.9">(2004)</tspan>
    </text>
  </g>
  <text font-size="8" style="fill: #000000;text-anchor:start;font-family:sans-serif;font-style:normal;font-weight:normal" x="896.6" y="741">
    <tspan x="896.6" y="741">+Timeline sweep</tspan>
    <tspan x="896.6" y="751">matches</tspan>
    <tspan x="896.6" y="761">+Match 2x2</tspan>
  </text>
  <g>
    <rect style="fill: #ffffff" x="989.5" y="729.4" width="80" height="52" rx="20" ry="20"/>
    <rect style="fill: none; fill-opacity:0; stroke-width: 2; stroke: #000000" x="989.5" y="729.4" width="80" height="52" rx="20" ry="20"/>
    <text font-size="12.8" style="fill: #000000;text-anchor:middle;font-family:sans-serif;font-style:normal;font-weight:normal" x="1029.5" y="751.3">
      <tspan x="1029.5" y="751.3">Hexic</tspan>
      <tspan x="1029.5" y="767.3">(2004)</tspan>
    </text>
  </g>
  <text font-size="8" style="fill: #000000;text-anchor:start;font-family:sans-serif;font-style:normal;font-weight:normal" x="1004.5" y="792.4">
    <tspan x="1004.5" y="792.4">+Hexagonal</tspan>
    <tspan x="1004.5" y="802.4">playing field</tspan>
    <tspan x="1004.5" y="812.4">+Rotate 3</tspan>
    <tspan x="1004.5" y="822.4"></tspan>
  </text>
  <g>
    <g>
      <rect style="fill: #ffffff" x="1092" y="801.85" width="80" height="52" rx="20" ry="20"/>
      <rect style="fill: none; fill-opacity:0; stroke-width: 2; stroke: #000000" x="1092" y="801.85" width="80" height="52" rx="20" ry="20"/>
      <text font-size="12.8" style="fill: #000000;text-anchor:middle;font-family:sans-serif;font-style:normal;font-weight:normal" x="1132" y="823.75">
        <tspan x="1132" y="823.75">Luxor</tspan>
        <tspan x="1132" y="839.75">(2005)</tspan>
      </text>
    </g>
    <text font-size="8" style="fill: #000000;text-anchor:start;font-family:sans-serif;font-style:normal;font-weight:normal" x="1175" y="813.85">
      <tspan x="1175" y="813.85">+Shoot tiles</tspan>
      <tspan x="1175" y="823.85">from bottom</tspan>
      <tspan x="1175" y="833.85"></tspan>
    </text>
  </g>
  <g>
    <rect style="fill: #ffffff" x="447" y="819" width="88.75" height="52" rx="20" ry="20"/>
    <rect style="fill: none; fill-opacity:0; stroke-width: 2; stroke: #000000" x="447" y="819" width="88.75" height="52" rx="20" ry="20"/>
    <text font-size="12.8" style="fill: #000000;text-anchor:middle;font-family:sans-serif;font-style:normal;font-weight:normal" x="491.375" y="840.9">
      <tspan x="491.375" y="840.9">7 Wonders</tspan>
      <tspan x="491.375" y="856.9">(2006)</tspan>
    </text>
  </g>
  <text font-size="8" style="fill: #000000;text-anchor:start;font-family:sans-serif;font-style:normal;font-weight:normal" x="544.3" y="839">
    <tspan x="544.3" y="839">+Cornerstones</tspan>
    <tspan x="544.3" y="849">that must get</tspan>
    <tspan x="544.3" y="859">to the bottom</tspan>
    <tspan x="544.3" y="869"></tspan>
  </text>
  <g>
    <rect style="fill: #ffffff" x="287.5" y="830.4" width="109.65" height="52" rx="20" ry="20"/>
    <rect style="fill: none; fill-opacity:0; stroke-width: 2; stroke: #000000" x="287.5" y="830.4" width="109.65" height="52" rx="20" ry="20"/>
    <text font-size="12.8" style="fill: #000000;text-anchor:middle;font-family:sans-serif;font-style:normal;font-weight:normal" x="342.325" y="852.3">
      <tspan x="342.325" y="852.3">Da Vinci Code</tspan>
      <tspan x="342.325" y="868.3">(2006)</tspan>
    </text>
  </g>
  <text font-size="8" style="fill: #000000;text-anchor:end;font-family:sans-serif;font-style:normal;font-weight:normal" x="281.5" y="848.4">
    <tspan x="281.5" y="848.4">+Cornerstones</tspan>
    <tspan x="281.5" y="858.4">as horizontal</tspan>
    <tspan x="281.5" y="868.4">path</tspan>
    <tspan x="281.5" y="878.4"></tspan>
  </text>
  <g>
    <rect style="fill: #ffffff" x="110" y="795" width="80" height="52" rx="20" ry="20"/>
    <rect style="fill: none; fill-opacity:0; stroke-width: 2; stroke: #000000" x="110" y="795" width="80" height="52" rx="20" ry="20"/>
    <text font-size="12.8" style="fill: #000000;text-anchor:middle;font-family:sans-serif;font-style:normal;font-weight:normal" x="150" y="816.9">
      <tspan x="150" y="816.9">Meteos</tspan>
      <tspan x="150" y="832.9">(2005)</tspan>
    </text>
  </g>
  <text font-size="8" style="fill: #000000;text-anchor:start;font-family:sans-serif;font-style:normal;font-weight:normal" x="192" y="801">
    <tspan x="192" y="801">+Shift tiles</tspan>
    <tspan x="192" y="811">vertically </tspan>
    <tspan x="192" y="821">in fallen columns.</tspan>
    <tspan x="192" y="831">+Thrusters</tspan>
  </text>
  <g>
    <line style="fill: none; fill-opacity:0; stroke-width: 2; stroke: #000000" x1="417" y1="571" x2="442.222" y2="597.01"/>
    <polygon style="fill: #000000" points="447.443,602.395 436.892,598.696 442.222,597.01 444.071,591.735 "/>
    <polygon style="fill: none; fill-opacity:0; stroke-width: 2; stroke: #000000" points="447.443,602.395 436.892,598.696 442.222,597.01 444.071,591.735 "/>
  </g>
  <text font-size="8" style="fill: #000000;text-anchor:start;font-family:sans-serif;font-style:normal;font-weight:normal" x="418.5" y="557.4">
    <tspan x="418.5" y="557.4">+Time</tspan>
    <tspan x="418.5" y="567.4">pressure</tspan>
  </text>
  <g>
    <path style="fill: none; fill-opacity:0; stroke-width: 2; stroke-dasharray: 4; stroke: #000000" d="M 542.5,88.8 A 331.246,331.246 0 0 0 485.618,597.117"/>
    <polygon style="fill: #000000" points="490.896,602.442 480.239,599.062 485.516,597.217 487.205,591.888 "/>
    <polygon style="fill: none; fill-opacity:0; stroke-width: 2; stroke: #000000" points="490.896,602.442 480.239,599.062 485.516,597.217 487.205,591.888 "/>
  </g>
</svg>
