<?xml version="1.0" encoding="UTF-8"?><svg xmlns="http://www.w3.org/2000/svg" xmlns:xlink="http://www.w3.org/1999/xlink" fill-opacity="1" color-rendering="auto" color-interpolation="auto" text-rendering="auto" stroke="black" stroke-linecap="square" width="1059" stroke-miterlimit="10" shape-rendering="auto" stroke-opacity="1" fill="black" stroke-dasharray="none" font-weight="normal" stroke-width="1" height="191" font-family="'Dialog'" font-style="normal" stroke-linejoin="miter" font-size="12px" stroke-dashoffset="0" image-rendering="auto">
  <!--Generated by ySVG 2.5-->
  <defs id="genericDefs"/>
  <g>
    <defs id="defs1">
      <linearGradient x1="893.9562" gradientUnits="userSpaceOnUse" x2="1003.9562" y1="729.1954" y2="784.1954" id="linearGradient1" spreadMethod="reflect">
        <stop stop-opacity="1" stop-color="rgb(240,240,240)" offset="0%"/>
        <stop stop-opacity="1" stop-color="rgb(240,240,240)" offset="100%"/>
      </linearGradient>
      <linearGradient x1="1208.0349" gradientUnits="userSpaceOnUse" x2="1318.0349" y1="728.8326" y2="783.8326" id="linearGradient2" spreadMethod="reflect">
        <stop stop-opacity="1" stop-color="rgb(240,240,240)" offset="0%"/>
        <stop stop-opacity="1" stop-color="rgb(240,240,240)" offset="100%"/>
      </linearGradient>
      <linearGradient x1="1510.5146" gradientUnits="userSpaceOnUse" x2="1620.5146" y1="728.8326" y2="783.8326" id="linearGradient3" spreadMethod="reflect">
        <stop stop-opacity="1" stop-color="rgb(240,240,240)" offset="0%"/>
        <stop stop-opacity="1" stop-color="rgb(240,240,240)" offset="100%"/>
      </linearGradient>
      <linearGradient x1="1811.4364" gradientUnits="userSpaceOnUse" x2="1921.4364" y1="728.8326" y2="783.8326" id="linearGradient4" spreadMethod="reflect">
        <stop stop-opacity="1" stop-color="rgb(240,240,240)" offset="0%"/>
        <stop stop-opacity="1" stop-color="rgb(240,240,240)" offset="100%"/>
      </linearGradient>
      <linearGradient x1="1360.0537" gradientUnits="userSpaceOnUse" x2="1470.0537" y1="728.8326" y2="783.8326" id="linearGradient5" spreadMethod="reflect">
        <stop stop-opacity="1" stop-color="rgb(240,240,240)" offset="0%"/>
        <stop stop-opacity="1" stop-color="rgb(240,240,240)" offset="100%"/>
      </linearGradient>
      <linearGradient x1="1050.9955" gradientUnits="userSpaceOnUse" x2="1160.9955" y1="728.8326" y2="783.8326" id="linearGradient6" spreadMethod="reflect">
        <stop stop-opacity="1" stop-color="rgb(240,240,240)" offset="0%"/>
        <stop stop-opacity="1" stop-color="rgb(240,240,240)" offset="100%"/>
      </linearGradient>
      <linearGradient x1="1660.9755" gradientUnits="userSpaceOnUse" x2="1770.9755" y1="728.8326" y2="783.8326" id="linearGradient7" spreadMethod="reflect">
        <stop stop-opacity="1" stop-color="rgb(240,240,240)" offset="0%"/>
        <stop stop-opacity="1" stop-color="rgb(240,240,240)" offset="100%"/>
      </linearGradient>
      <clipPath clipPathUnits="userSpaceOnUse" id="clipPath1">
        <path d="M0 0 L1059 0 L1059 191 L0 191 L0 0 Z"/>
      </clipPath>
      <clipPath clipPathUnits="userSpaceOnUse" id="clipPath2">
        <path d="M878 671 L1937 671 L1937 862 L878 862 L878 671 Z"/>
      </clipPath>
    </defs>
    <g fill="white" text-rendering="geometricPrecision" shape-rendering="geometricPrecision" transform="translate(-878,-671)" stroke="white">
      <rect x="878" width="1059" height="191" y="671" clip-path="url(#clipPath2)" stroke="none"/>
    </g>
    <g fill="url(#linearGradient1)" text-rendering="geometricPrecision" shape-rendering="geometricPrecision" transform="matrix(1,0,0,1,-878,-671)" stroke="url(#linearGradient1)">
      <path d="M893.9562 729.1954 L1003.9562 729.1954 L1003.9562 784.1954 L893.9562 784.1954 Z" stroke="none" clip-path="url(#clipPath2)"/>
    </g>
    <g text-rendering="geometricPrecision" stroke-miterlimit="1.45" stroke-dasharray="6,2" shape-rendering="geometricPrecision" transform="matrix(1,0,0,1,-878,-671)" stroke-linecap="butt">
      <path fill="none" d="M893.9562 729.1954 L1003.9562 729.1954 L1003.9562 784.1954 L893.9562 784.1954 Z" clip-path="url(#clipPath2)"/>
      <text x="919.9493" y="754.0587" clip-path="url(#clipPath2)" font-family="sans-serif" stroke-dasharray="none" stroke="none" xml:space="preserve">SUCCESS</text>
      <text x="920.9542" y="768.7598" clip-path="url(#clipPath2)" font-family="sans-serif" stroke-dasharray="none" stroke="none" xml:space="preserve">CRITERIA</text>
    </g>
    <g fill="url(#linearGradient2)" text-rendering="geometricPrecision" shape-rendering="geometricPrecision" transform="matrix(1,0,0,1,-878,-671)" stroke="url(#linearGradient2)">
      <path d="M1208.0349 728.8326 L1318.0349 728.8326 L1318.0349 783.8326 L1208.0349 783.8326 Z" stroke="none" clip-path="url(#clipPath2)"/>
    </g>
    <g text-rendering="geometricPrecision" stroke-miterlimit="1.45" shape-rendering="geometricPrecision" transform="matrix(1,0,0,1,-878,-671)" stroke-linecap="butt">
      <path fill="none" d="M1208.0349 728.8326 L1318.0349 728.8326 L1318.0349 783.8326 L1208.0349 783.8326 Z" clip-path="url(#clipPath2)"/>
      <text x="1233.6941" xml:space="preserve" y="753.6959" clip-path="url(#clipPath2)" font-family="sans-serif" stroke="none">MULTIPLE</text>
      <text x="1229.3669" xml:space="preserve" y="768.397" clip-path="url(#clipPath2)" font-family="sans-serif" stroke="none">COUNTERS</text>
    </g>
    <g fill="url(#linearGradient3)" text-rendering="geometricPrecision" shape-rendering="geometricPrecision" transform="matrix(1,0,0,1,-878,-671)" stroke="url(#linearGradient3)">
      <path d="M1510.5146 728.8326 L1620.5146 728.8326 L1620.5146 783.8326 L1510.5146 783.8326 Z" stroke="none" clip-path="url(#clipPath2)"/>
    </g>
    <g text-rendering="geometricPrecision" stroke-miterlimit="1.45" shape-rendering="geometricPrecision" transform="matrix(1,0,0,1,-878,-671)" stroke-linecap="butt">
      <path fill="none" d="M1510.5146 728.8326 L1620.5146 728.8326 L1620.5146 783.8326 L1510.5146 783.8326 Z" clip-path="url(#clipPath2)"/>
      <text x="1514.8428" xml:space="preserve" y="761.0464" clip-path="url(#clipPath2)" font-family="sans-serif" stroke="none">CORNERSTONES</text>
    </g>
    <g fill="url(#linearGradient4)" text-rendering="geometricPrecision" shape-rendering="geometricPrecision" transform="matrix(1,0,0,1,-878,-671)" stroke="url(#linearGradient4)">
      <path d="M1811.4364 728.8326 L1921.4364 728.8326 L1921.4364 783.8326 L1811.4364 783.8326 Z" stroke="none" clip-path="url(#clipPath2)"/>
    </g>
    <g text-rendering="geometricPrecision" stroke-miterlimit="1.45" shape-rendering="geometricPrecision" transform="matrix(1,0,0,1,-878,-671)" stroke-linecap="butt">
      <path fill="none" d="M1811.4364 728.8326 L1921.4364 728.8326 L1921.4364 783.8326 L1811.4364 783.8326 Z" clip-path="url(#clipPath2)"/>
      <text x="1837.0956" xml:space="preserve" y="753.6959" clip-path="url(#clipPath2)" font-family="sans-serif" stroke="none">MULTIPLE</text>
      <text x="1838.4344" xml:space="preserve" y="768.397" clip-path="url(#clipPath2)" font-family="sans-serif" stroke="none">CRITERIA</text>
    </g>
    <g fill="url(#linearGradient5)" text-rendering="geometricPrecision" shape-rendering="geometricPrecision" transform="matrix(1,0,0,1,-878,-671)" stroke="url(#linearGradient5)">
      <path d="M1360.0537 728.8326 L1470.0537 728.8326 L1470.0537 783.8326 L1360.0537 783.8326 Z" stroke="none" clip-path="url(#clipPath2)"/>
    </g>
    <g text-rendering="geometricPrecision" stroke-miterlimit="1.45" shape-rendering="geometricPrecision" transform="matrix(1,0,0,1,-878,-671)" stroke-linecap="butt">
      <path fill="none" d="M1360.0537 728.8326 L1470.0537 728.8326 L1470.0537 783.8326 L1360.0537 783.8326 Z" clip-path="url(#clipPath2)"/>
      <text x="1393.7227" xml:space="preserve" y="753.6959" clip-path="url(#clipPath2)" font-family="sans-serif" stroke="none">MATCH</text>
      <text x="1372.0488" xml:space="preserve" y="768.397" clip-path="url(#clipPath2)" font-family="sans-serif" stroke="none">BACKGROUND</text>
    </g>
    <g fill="url(#linearGradient6)" text-rendering="geometricPrecision" shape-rendering="geometricPrecision" transform="matrix(1,0,0,1,-878,-671)" stroke="url(#linearGradient6)">
      <path d="M1050.9955 728.8326 L1160.9955 728.8326 L1160.9955 783.8326 L1050.9955 783.8326 Z" stroke="none" clip-path="url(#clipPath2)"/>
    </g>
    <g text-rendering="geometricPrecision" stroke-miterlimit="1.45" shape-rendering="geometricPrecision" transform="matrix(1,0,0,1,-878,-671)" stroke-linecap="butt">
      <path fill="none" d="M1050.9955 728.8326 L1160.9955 728.8326 L1160.9955 783.8326 L1050.9955 783.8326 Z" clip-path="url(#clipPath2)"/>
      <text x="1076.3295" xml:space="preserve" y="761.0464" clip-path="url(#clipPath2)" font-family="sans-serif" stroke="none">COUNTER</text>
    </g>
    <g fill="url(#linearGradient7)" text-rendering="geometricPrecision" shape-rendering="geometricPrecision" transform="matrix(1,0,0,1,-878,-671)" stroke="url(#linearGradient7)">
      <path d="M1660.9755 728.8326 L1770.9755 728.8326 L1770.9755 783.8326 L1660.9755 783.8326 Z" stroke="none" clip-path="url(#clipPath2)"/>
    </g>
    <g text-rendering="geometricPrecision" stroke-miterlimit="1.45" shape-rendering="geometricPrecision" transform="matrix(1,0,0,1,-878,-671)" stroke-linecap="butt">
      <path fill="none" d="M1660.9755 728.8326 L1770.9755 728.8326 L1770.9755 783.8326 L1660.9755 783.8326 Z" clip-path="url(#clipPath2)"/>
      <text x="1665.3036" xml:space="preserve" y="753.6959" clip-path="url(#clipPath2)" font-family="sans-serif" stroke="none">CORNERSTONES</text>
      <text x="1677.3065" xml:space="preserve" y="768.397" clip-path="url(#clipPath2)" font-family="sans-serif" stroke="none">HORIZONTAL</text>
    </g>
    <g text-rendering="geometricPrecision" stroke-miterlimit="1.45" shape-rendering="geometricPrecision" transform="matrix(1,0,0,1,-878,-671)" stroke-linecap="butt">
      <path fill="none" d="M1003.9229 734.1935 L1026.0079 726.0314 L1064.5358 713.9799 L1103.0649 704.1155 L1141.5953 696.4382 L1180.127 690.9479 L1218.66 687.6447 L1257.1942 686.5284 L1295.7297 687.5993 L1334.2666 690.8572 L1372.8047 696.3021 L1411.3441 703.9341 L1449.8849 713.7532 L1488.4269 725.7593 L1503.0143 731.1309" clip-path="url(#clipPath2)"/>
    </g>
    <g text-rendering="geometricPrecision" stroke-miterlimit="1.45" shape-rendering="geometricPrecision" transform="matrix(1,0,0,1,-878,-671)" stroke-linecap="butt">
      <path d="M1510.5215 733.8954 L1500.9885 725.0567 L1502.0759 730.7854 L1497.533 734.4407 Z" stroke="none" clip-path="url(#clipPath2)"/>
      <path fill="none" d="M1620.5049 782.6229 L1621.9375 783.2001 L1640.7451 789.4003 L1659.5527 794.2227 L1678.3604 797.6672 L1697.168 799.734 L1715.9756 800.4229 L1734.7832 799.734 L1753.5908 797.6672 L1772.3984 794.2227 L1791.2059 789.4003 L1803.8801 785.2221 L1803.9729 785.1848" clip-path="url(#clipPath2)"/>
      <path d="M1811.5406 782.5906 L1798.5677 781.7521 L1803.027 785.509 L1801.8104 791.2117 Z" clip-path="url(#clipPath2)" stroke="none"/>
      <path fill="none" d="M1003.9313 736.7798 L1007.202 735.6841 L1036.3267 727.4248 L1065.4525 720.6631 L1094.5796 715.3989 L1123.7078 711.6323 L1152.837 709.3633 L1181.9675 708.5919 L1211.0992 709.318 L1240.2321 711.5416 L1269.3661 715.2629 L1298.5013 720.4817 L1327.6377 727.1981 L1352.3932 734.1767 L1352.488 734.2083" clip-path="url(#clipPath2)"/>
      <path d="M1360.1432 736.5317 L1350.1124 728.2621 L1351.5311 733.9179 L1347.2083 737.8312 Z" clip-path="url(#clipPath2)" stroke="none"/>
      <path fill="none" d="M1470.0715 781.4354 L1471.4766 782.0296 L1499.688 792.1248 L1527.8994 800.3846 L1556.1108 806.8088 L1584.3223 811.3976 L1612.5337 814.1509 L1640.7451 815.0686 L1668.9565 814.1509 L1697.168 811.3976 L1725.3794 806.8088 L1753.5907 800.3846 L1781.8021 792.1248 L1803.9158 784.2117 L1804.0078 784.1727" clip-path="url(#clipPath2)"/>
      <path d="M1811.5122 781.4008 L1798.5231 780.8684 L1803.0697 784.5192 L1801.988 790.249 Z" clip-path="url(#clipPath2)" stroke="none"/>
      <path fill="none" d="M1003.9562 756.514 L1042.9496 756.514" clip-path="url(#clipPath2)"/>
      <path d="M1050.9496 756.514 L1038.9496 751.514 L1041.9496 756.514 L1038.9496 761.514 Z" clip-path="url(#clipPath2)" stroke="none"/>
      <path fill="none" d="M1161.0129 756.3326 L1199.9889 756.3326" clip-path="url(#clipPath2)"/>
      <path d="M1207.9889 756.3326 L1195.9889 751.3326 L1198.9889 756.3326 L1195.9889 761.3326 Z" clip-path="url(#clipPath2)" stroke="none"/>
      <path fill="none" d="M1160.9956 780.3946 L1201.0505 795.862 L1248.5781 811.3914 L1296.1057 824.0973 L1343.6333 833.9797 L1391.1609 841.0385 L1438.6884 845.2738 L1486.2159 846.6855 L1533.7435 845.2738 L1581.271 841.0385 L1628.7986 833.9797 L1676.3262 824.0973 L1723.8538 811.3914 L1771.3813 795.862 L1803.9734 783.2764" clip-path="url(#clipPath2)"/>
      <path d="M1811.4363 780.3946 L1798.4408 780.053 L1803.0405 783.6367 L1802.0431 789.3817 Z" clip-path="url(#clipPath2)" stroke="none"/>
      <path fill="none" d="M1620.5049 756.3326 L1653.0146 756.3326" clip-path="url(#clipPath2)"/>
      <path d="M1661.0146 756.3326 L1649.0146 751.3326 L1652.0146 756.3326 L1649.0146 761.3326 Z" clip-path="url(#clipPath2)" stroke="none"/>
    </g>
  </g>
</svg>
