<svg id="Layer_1" data-name="Layer 1" xmlns="http://www.w3.org/2000/svg" viewBox="0 0 349 265.89"><defs><style>.cls-1,.cls-2{fill:none;stroke:#231f20;stroke-miterlimit:10;stroke-width:5px;}.cls-1{stroke-dasharray:12.11 12.11;}.cls-3{font-size:12px;font-family:SourceSansPro-Bold, Source Sans Pro;font-weight:700;}.cls-3,.cls-6,.cls-8{fill:#231f20;}.cls-4{letter-spacing:-0.01em;}.cls-5{letter-spacing:0em;}.cls-6,.cls-8{font-size:8px;}.cls-6{font-family:SourceSansPro-It, Source Sans Pro;font-style:italic;}.cls-7{letter-spacing:-0.01em;}.cls-8{font-family:SourceSansPro-Regular, Source Sans Pro;}.cls-9{letter-spacing:-0.05em;}.cls-10{letter-spacing:0em;}.cls-11{letter-spacing:-0.01em;}.cls-12{letter-spacing:0em;}.cls-13{letter-spacing:-0.02em;}.cls-14{letter-spacing:-0.01em;}.cls-15{letter-spacing:-0.02em;}.cls-16{letter-spacing:-0.01em;}.cls-17{letter-spacing:0em;}.cls-18{letter-spacing:-0.02em;}.cls-19{letter-spacing:-0.02em;}.cls-20{letter-spacing:-0.01em;}.cls-21{letter-spacing:-0.02em;}.cls-22{letter-spacing:-0.02em;}.cls-23{letter-spacing:-0.02em;}</style></defs><title>Level of abstraction 05</title><circle class="cls-1" cx="124.55" cy="143.89" r="119.5" transform="translate(-65.27 130.21) rotate(-45)"/><path class="cls-2" d="M175.78,251.88a119.5,119.5,0,1,1,0-216"/><circle class="cls-1" cx="227" cy="143.89" r="119.5" transform="translate(48.61 344.91) rotate(-80.78)"/><text class="cls-3" transform="translate(92.93 9.96)">Rules</text><text class="cls-3" transform="translate(223.41 9.96)">Fi<tspan class="cls-4" x="9.6" y="0">c</tspan><tspan class="cls-5" x="15.08" y="0">tion</tspan></text><text class="cls-6" transform="translate(75.41 57.96)">Rules not<tspan x="-0.95" y="9.6">explained</tspan><tspan class="cls-7" x="0.2" y="19.2">b</tspan><tspan x="4.4" y="19.2">y fiction</tspan></text><text class="cls-8" transform="translate(20.16 125.29)"><tspan class="cls-9">-</tspan><tspan x="2.11" y="0">Th</tspan><tspan class="cls-4" x="10.75" y="0">r</tspan><tspan x="13.45" y="0">ee li</tspan><tspan class="cls-10" x="26.99" y="0">v</tspan><tspan x="30.7" y="0">es of Mario</tspan><tspan x="0" y="19.2">-$200 </tspan><tspan class="cls-11" x="19.99" y="19.2">p</tspan><tspan class="cls-12" x="24.32" y="19.2">a</tspan><tspan class="cls-13" x="28.35" y="19.2">s</tspan><tspan x="31.54" y="19.2">t </tspan><tspan class="cls-14" x="35.85" y="19.2">g</tspan><tspan x="39.77" y="19.2">o in</tspan><tspan x="0" y="28.8" xml:space="preserve"> Monopoly</tspan><tspan x="0" y="48">-Infini</tspan><tspan class="cls-14" x="19.62" y="48">t</tspan><tspan x="22.21" y="48">e </tspan><tspan class="cls-4" x="27.78" y="48">r</tspan><tspan x="30.47" y="48">esou</tspan><tspan class="cls-4" x="46.48" y="48">r</tspan><tspan class="cls-15" x="49.17" y="48">c</tspan><tspan x="52.65" y="48">es</tspan></text><text class="cls-8" transform="translate(145.71 125.29)">-Ca<tspan class="cls-10" x="11.09" y="0">r</tspan><tspan class="cls-12" x="13.83" y="0">s th</tspan><tspan class="cls-14" x="25.84" y="0">a</tspan><tspan x="29.76" y="0">t dri</tspan><tspan class="cls-10" x="43.25" y="0">v</tspan><tspan x="46.95" y="0">e</tspan><tspan x="0.75" y="19.2">-</tspan><tspan class="cls-16" x="3.24" y="19.2">R</tspan><tspan x="7.71" y="19.2">ocks th</tspan><tspan class="cls-11" x="31.66" y="19.2">a</tspan><tspan x="35.58" y="19.2">t </tspan><tspan class="cls-13" x="39.88" y="19.2">f</tspan><tspan class="cls-17" x="42.06" y="19.2">all</tspan><tspan x="-21.07" y="38.4">-Obje</tspan><tspan class="cls-16" x="-2.9" y="38.4">ct</tspan><tspan class="cls-12" x="3.29" y="38.4">s th</tspan><tspan class="cls-14" x="15.3" y="38.4">a</tspan><tspan x="19.22" y="38.4">t </tspan><tspan class="cls-16" x="23.52" y="38.4">c</tspan><tspan class="cls-12" x="27.09" y="38.4">an be pushed</tspan><tspan x="-8.35" y="57.6">-</tspan><tspan class="cls-14" x="-5.86" y="57.6">F</tspan><tspan x="-2.02" y="57.6">ood th</tspan><tspan class="cls-11" x="19.75" y="57.6">a</tspan><tspan x="23.67" y="57.6">t is </tspan><tspan class="cls-15" x="34.89" y="57.6">c</tspan><tspan x="38.37" y="57.6">oo</tspan><tspan class="cls-18" x="47.04" y="57.6">k</tspan><tspan x="50.86" y="57.6">ed</tspan><tspan x="3.88" y="67.2">when h</tspan><tspan class="cls-11" x="28.27" y="67.2">eat</tspan><tspan x="38.64" y="67.2">ed</tspan></text><text class="cls-8" transform="translate(267.45 125.29)">-Ca<tspan class="cls-10" x="11.09" y="0">r</tspan><tspan class="cls-12" x="13.83" y="0">s th</tspan><tspan class="cls-14" x="25.84" y="0">a</tspan><tspan x="29.76" y="0">t do n</tspan><tspan class="cls-19" x="48.82" y="0">o</tspan><tspan class="cls-12" x="53.02" y="0">t</tspan><tspan x="-4.8" y="9.6">all</tspan><tspan class="cls-10" x="3.31" y="9.6">o</tspan><tspan class="cls-12" x="7.62" y="9.6">w changing oil</tspan><tspan x="1.66" y="28.8">-M</tspan><tspan class="cls-20" x="9.96" y="28.8">a</tspan><tspan class="cls-13" x="13.88" y="28.8">t</tspan><tspan class="cls-14" x="16.42" y="28.8">t</tspan><tspan x="19.02" y="28.8">e </tspan><tspan class="cls-11" x="24.58" y="28.8">p</tspan><tspan class="cls-12" x="28.91" y="28.8">aintings</tspan><tspan x="-13.16" y="48">-Ina</tspan><tspan class="cls-21" x="-0.16" y="48">cc</tspan><tspan class="cls-17" x="6.8" y="48">essible obje</tspan><tspan class="cls-4" x="46.18" y="48">ct</tspan><tspan x="52.37" y="48">s</tspan><tspan x="-14.19" y="67.2">-Ki</tspan><tspan class="cls-14" x="-5.1" y="67.2">t</tspan><tspan x="-2.51" y="67.2">chens th</tspan><tspan class="cls-20" x="25.84" y="67.2">a</tspan><tspan class="cls-12" x="29.76" y="67.2">t do n</tspan><tspan class="cls-22" x="48.82" y="67.2">o</tspan><tspan x="53.02" y="67.2">t</tspan><tspan x="-19.98" y="76.8">all</tspan><tspan class="cls-10" x="-11.86" y="76.8">o</tspan><tspan class="cls-12" x="-7.56" y="76.8">w o</tspan><tspan class="cls-4" x="4.12" y="76.8">r</tspan><tspan x="6.82" y="76.8">dering </tspan><tspan class="cls-15" x="29.98" y="76.8">t</tspan><tspan x="32.51" y="76.8">a</tspan><tspan class="cls-23" x="36.54" y="76.8">k</tspan><tspan x="40.36" y="76.8">eout</tspan></text><text class="cls-6" transform="translate(164.18 57.96)">Fiction<tspan x="-10.75" y="9.6">implemen</tspan><tspan class="cls-7" x="22.09" y="9.6">t</tspan><tspan class="cls-12" x="24.6" y="9.6">ed</tspan><tspan x="-0.83" y="19.2">in rules</tspan></text><text class="cls-6" transform="translate(244.28 57.96)">Fiction not<tspan x="-4.52" y="9.6">implemen</tspan><tspan class="cls-7" x="28.32" y="9.6">t</tspan><tspan class="cls-12" x="30.83" y="9.6">ed</tspan><tspan x="5.4" y="19.2">in rules</tspan></text><path class="cls-2" d="M175.77,35.9a119.5,119.5,0,1,1,0,216"/><text></text><text></text></svg>